<svg width="666" height="192" viewBox="0 0 666 192" fill="none" xmlns="http://www.w3.org/2000/svg">
<path d="M0 24C0 10.7452 10.7452 0 24 0H97C149.467 0 192 42.5329 192 95V168C192 181.255 181.255 192 168 192H24C10.7452 192 0 181.255 0 168V24Z" fill="#2EB654"/>
<path d="M90.9404 46H46V79.3186H107.143C73.2205 80.2318 46 107.997 46 142.141V146H79.6279V142.391C79.6279 126.1 92.8258 112.902 109.117 112.902H112.681V146H146V101.06C146 70.6428 121.342 46 90.9404 46Z" fill="white"/>
<path d="M255.052 128.808C244.882 128.808 235.616 121.011 235.616 110.276C235.616 101.01 242.396 96.151 252.905 94.004L260.589 92.422C269.516 90.727 274.149 88.693 274.149 84.964C274.149 81.461 270.42 78.862 263.753 78.862C255.391 78.862 251.097 83.043 249.628 89.032L234.938 86.659C237.424 73.89 247.368 66.545 263.188 66.545C277.2 66.545 289.404 72.421 289.404 91.744V121.463C289.404 123.836 289.856 125.305 290.082 126.096V127H274.488C274.036 126.096 273.584 124.966 273.584 123.158C273.584 120.785 274.375 118.638 275.505 115.7H274.036C269.516 124.175 262.962 128.808 255.052 128.808ZM260.137 116.265C266.691 116.265 274.262 111.745 274.262 101.01V96.038H274.149C273.245 100.106 270.194 101.914 261.945 103.383C253.583 104.852 251.097 106.321 251.097 109.372C251.097 112.988 254.6 116.265 260.137 116.265ZM300.787 127V68.24H316.042C316.155 69.257 316.268 70.274 316.268 71.517C316.268 74.794 315.59 78.297 314.347 81.235H315.816C318.867 72.082 323.839 66.545 332.088 66.545C335.026 66.545 337.851 67.223 339.772 68.466L338.303 84.738C336.382 83.382 334.009 82.365 330.506 82.365C320.901 82.365 316.042 89.371 316.042 103.609V127H300.787ZM371.582 128.695C351.129 128.695 342.315 113.44 342.315 97.62C342.315 81.122 351.694 66.545 372.034 66.545C388.419 66.545 396.668 76.263 398.702 86.885L383.56 89.258C382.091 84.06 378.249 79.653 371.695 79.653C364.124 79.653 358.361 85.303 358.361 97.055C358.361 107.79 363.107 115.587 372.034 115.587C379.04 115.587 383.221 110.728 384.916 104.513L400.171 106.321C398.137 117.395 389.21 128.695 371.582 128.695ZM433.613 128.695C415.646 128.695 403.781 116.491 403.781 97.62C403.781 78.636 415.646 66.545 433.613 66.545C451.467 66.545 463.332 78.636 463.332 97.62C463.332 116.491 451.467 128.695 433.613 128.695ZM433.613 115.361C442.314 115.361 447.286 108.468 447.286 97.62C447.286 86.659 442.314 79.879 433.613 79.879C424.799 79.879 419.827 86.659 419.827 97.62C419.827 108.468 424.799 115.361 433.613 115.361ZM494.408 128.695C480.17 128.695 469.661 115.926 469.661 97.394C469.661 79.992 478.927 66.545 494.521 66.545C506.838 66.545 511.584 74.907 514.07 80.331H515.539C514.296 78.071 513.731 74.455 513.731 69.144V46.77H528.986V121.237C528.986 123.836 529.438 125.305 529.664 126.096V127H514.07C513.618 126.096 513.279 124.966 513.279 122.932C513.279 120.559 513.957 118.299 515.087 115.135H513.618C511.132 121.35 505.143 128.695 494.408 128.695ZM499.38 115.135C508.307 115.135 513.166 107.451 513.166 97.281C513.166 87.111 508.194 79.766 499.606 79.766C491.018 79.766 485.707 86.885 485.707 97.62C485.707 108.242 491.018 115.135 499.38 115.135ZM542.468 127V68.24H557.723V127H542.468ZM541.79 62.251V46.77H558.401V62.251H541.79ZM573.19 127V82.026H564.263V68.24H573.416V66.771C572.625 66.319 567.653 63.494 567.653 56.827C567.653 49.934 573.077 46.77 582.117 46.77H601.892V59.991H588.219C584.603 59.991 581.891 60.556 581.891 63.946C581.891 67.336 584.49 68.24 589.462 68.24H601.892V82.026H588.332V127H573.19ZM615.694 130.164C616.711 132.763 618.18 134.345 620.327 134.345C623.378 134.345 625.412 131.181 627.333 126.435L628.576 123.497L606.089 68.24H622.926L634.226 100.106C635.243 102.705 635.582 105.191 635.582 107.564H637.051C637.051 105.191 637.39 102.705 638.181 100.106L648.916 68.24H665.753L644.735 121.915C637.729 139.656 631.853 146.775 621.005 146.775C611.626 146.775 605.524 141.577 603.49 133.441L615.694 130.164Z" fill="#2EB654"/>
</svg>
