<svg xmlns="http://www.w3.org/2000/svg" version="1.1" xmlns:xlink="http://www.w3.org/1999/xlink" width="192" height="192"><svg xmlns="http://www.w3.org/2000/svg" version="1.1" xmlns:xlink="http://www.w3.org/1999/xlink" width="192" height="192"><svg version="1.2" xmlns="http://www.w3.org/2000/svg" viewBox="0 0 192 192" width="192" height="192">
	<style>
		.s0 { fill: #2eb654 } 
		.s1 { fill: #ffffff } 
	</style>
	<path class="s0" d="m0 24c0-13.25 10.75-24 24-24h73c52.47 0 95 42.53 95 95v73c0 13.25-10.75 24-24 24h-144c-13.25 0-24-10.75-24-24z"></path>
	<path class="s1" d="m90.94 46h-44.94v33.32h61.14c-33.92 0.91-61.14 28.68-61.14 62.82v3.86h33.63v-3.61c0-16.29 13.2-29.49 29.49-29.49h3.56v33.1h33.32v-44.94c0-30.42-24.66-55.06-55.06-55.06z"></path>
	<path class="s0" d="m255.05 128.81c-10.17 0-19.43-7.8-19.43-18.53 0-9.27 6.78-14.13 17.28-16.28l7.69-1.58c8.93-1.69 13.56-3.73 13.56-7.46 0-3.5-3.73-6.1-10.4-6.1-8.36 0-12.65 4.18-14.12 10.17l-14.69-2.37c2.48-12.77 12.43-20.11 28.25-20.11 14.01 0 26.21 5.87 26.21 25.19v29.72c0 2.38 0.46 3.85 0.68 4.64v0.9h-15.59c-0.45-0.9-0.91-2.03-0.91-3.84 0-2.38 0.79-4.52 1.92-7.46h-1.46c-4.52 8.47-11.08 13.11-18.99 13.11zm5.09-12.54c6.55-0.01 14.12-4.52 14.12-15.26v-4.97h-0.11c-0.91 4.07-3.96 5.87-12.21 7.34-8.36 1.47-10.84 2.94-10.84 5.99 0 3.62 3.5 6.89 9.04 6.89zm40.65 10.74v-58.76h15.25c0.11 1.02 0.23 2.03 0.23 3.28 0 3.27-0.68 6.78-1.92 9.71h1.47c3.05-9.15 8.02-14.69 16.27-14.69 2.94 0 5.76 0.68 7.68 1.93l-1.47 16.27c-1.92-1.36-4.29-2.38-7.79-2.38-9.61 0-14.47 7.01-14.47 21.25v23.39zm70.8 1.69c-20.46 0-29.27-15.25-29.27-31.07 0-16.5 9.38-31.08 29.72-31.08 16.38 0 24.63 9.72 26.67 20.34l-15.15 2.38c-1.46-5.2-5.31-9.61-11.86-9.61-7.57 0-13.33 5.65-13.33 17.41 0 10.73 4.74 18.53 13.67 18.53 7.01 0 11.19-4.86 12.88-11.08l15.26 1.81c-2.04 11.07-10.97 22.37-28.59 22.37zm62.03 0c-17.97 0-29.83-12.2-29.83-31.07 0-18.98 11.86-31.08 29.83-31.08 17.85 0 29.72 12.1 29.72 31.08 0 18.87-11.87 31.07-29.72 31.07zm0-13.33c8.7 0 13.67-6.89 13.67-17.74 0-10.96-4.97-17.74-13.67-17.74-8.82 0-13.79 6.78-13.79 17.74 0 10.85 4.97 17.74 13.79 17.74zm60.79 13.33c-14.23 0-24.74-12.76-24.74-31.3 0-17.4 9.26-30.85 24.86-30.85 12.31 0 17.06 8.37 19.55 13.79h1.46c-1.24-2.26-1.8-5.88-1.8-11.19v-22.37h15.25v74.47c0 2.6 0.45 4.06 0.68 4.86v0.9h-15.59c-0.46-0.9-0.8-2.03-0.8-4.07 0-2.37 0.68-4.63 1.81-7.8h-1.47c-2.48 6.22-8.47 13.56-19.21 13.56zm4.97-13.56c8.93 0 13.79-7.68 13.79-17.85 0-10.17-4.97-17.51-13.56-17.51-8.59 0-13.9 7.11-13.9 17.85 0 10.62 5.31 17.51 13.67 17.51zm43.09 11.87v-58.76h15.26v58.76zm-0.68-64.75v-15.48h16.61v15.48zm31.4 64.75v-44.97h-8.93v-13.79h9.16v-1.47c-0.79-0.45-5.77-3.28-5.77-9.94 0-6.9 5.43-10.06 14.47-10.06h19.77v13.22h-13.67c-3.62 0-6.33 0.57-6.33 3.96 0 3.39 2.6 4.29 7.57 4.29h12.43v13.79h-13.56v44.97zm42.51 3.16c1.01 2.6 2.48 4.18 4.63 4.18 3.05 0 5.08-3.16 7.01-7.91l1.24-2.93-22.49-55.26h16.84l11.3 31.87c1.02 2.59 1.35 5.08 1.35 7.45h1.47c0-2.37 0.34-4.86 1.13-7.45l10.74-31.87h16.84l-21.02 53.67c-7.01 17.75-12.88 24.86-23.73 24.86-9.38 0-15.48-5.19-17.52-13.33z"></path>
</svg></svg><style>@media (prefers-color-scheme: light) { :root { filter: none; } }
@media (prefers-color-scheme: dark) { :root { filter: none; } }
</style></svg>